<svg width="151" height="43" viewBox="0 0 151 43" fill="none" xmlns="http://www.w3.org/2000/svg">
<rect x="0.939819" y="41" width="150" height="2" fill="#2374E1"/>
<path fill-rule="evenodd" clip-rule="evenodd" d="M46.5976 24.816C46.5972 24.9561 46.64 25.093 46.72 25.2079C46.8001 25.3229 46.9136 25.4104 47.0452 25.4585C47.1768 25.5066 47.32 25.5131 47.4554 25.4769C47.5907 25.4408 47.7117 25.3638 47.8017 25.2565L49.329 23.4401C49.4409 23.3026 49.5821 23.1917 49.7423 23.1155C49.9024 23.0393 50.0775 22.9998 50.2549 22.9997H55.0575C56.0662 23.0008 57.0341 22.6017 57.7489 21.89C58.4637 21.1783 58.867 20.2121 58.8702 19.2034V4.29768C58.8673 3.28877 58.4642 2.3222 57.7494 1.61019C57.0346 0.898181 56.0665 0.498914 55.0575 0.500002H50.3476C49.353 0.500002 48.3992 0.895077 47.696 1.59833C46.9927 2.30158 46.5976 3.2554 46.5976 4.24995V24.816ZM44.5522 24.816C44.5527 24.9561 44.5099 25.093 44.4298 25.2079C44.3498 25.3229 44.2362 25.4104 44.1047 25.4585C43.9731 25.5066 43.8299 25.5131 43.6945 25.4769C43.5592 25.4408 43.4382 25.3638 43.3482 25.2565L41.8209 23.4401C41.709 23.3026 41.5677 23.1917 41.4076 23.1155C41.2474 23.0393 41.0723 22.9998 40.895 22.9997H36.0923C35.0836 23.0008 34.1157 22.6017 33.401 21.89C32.6862 21.1783 32.2829 20.2121 32.2797 19.2034V4.29768C32.2826 3.28877 32.6856 2.3222 33.4005 1.61019C34.1153 0.898181 35.0834 0.498914 36.0923 0.500002H40.8023C41.7968 0.500002 42.7506 0.895077 43.4539 1.59833C44.1571 2.30158 44.5522 3.2554 44.5522 4.24995V24.816Z" fill="#2374E1"/>
<path d="M76.2878 15.5703C76.2878 15.3359 76.2514 15.1276 76.1785 14.9453C76.1108 14.763 75.9884 14.5964 75.8113 14.4453C75.6342 14.2943 75.3842 14.1484 75.0613 14.0078C74.7436 13.862 74.3373 13.7135 73.8425 13.5625C73.3009 13.3958 72.8009 13.2109 72.3425 13.0078C71.8894 12.7995 71.4936 12.5599 71.155 12.2891C70.8165 12.013 70.5535 11.6979 70.366 11.3438C70.1785 10.9844 70.0847 10.5703 70.0847 10.1016C70.0847 9.63802 70.1811 9.21615 70.3738 8.83594C70.5717 8.45573 70.8503 8.1276 71.2097 7.85156C71.5743 7.57031 72.004 7.35417 72.4988 7.20312C72.9936 7.04688 73.5404 6.96875 74.1394 6.96875C74.9832 6.96875 75.7097 7.125 76.3191 7.4375C76.9337 7.75 77.405 8.16927 77.7332 8.69531C78.0665 9.22135 78.2332 9.80208 78.2332 10.4375H76.2878C76.2878 10.0625 76.2071 9.73177 76.0457 9.44531C75.8894 9.15365 75.6498 8.92448 75.3269 8.75781C75.0092 8.59115 74.6056 8.50781 74.116 8.50781C73.6524 8.50781 73.267 8.57812 72.9597 8.71875C72.6524 8.85938 72.4233 9.04948 72.2722 9.28906C72.1212 9.52865 72.0457 9.79948 72.0457 10.1016C72.0457 10.3151 72.0951 10.5104 72.1941 10.6875C72.2931 10.8594 72.4441 11.0208 72.6472 11.1719C72.8503 11.3177 73.1056 11.4557 73.4128 11.5859C73.7201 11.7161 74.0821 11.8411 74.4988 11.9609C75.129 12.1484 75.6785 12.3568 76.1472 12.5859C76.616 12.8099 77.0066 13.0651 77.3191 13.3516C77.6316 13.638 77.866 13.9635 78.0222 14.3281C78.1785 14.6875 78.2566 15.0964 78.2566 15.5547C78.2566 16.0339 78.1602 16.4661 77.9675 16.8516C77.7748 17.2318 77.4988 17.5573 77.1394 17.8281C76.7852 18.0938 76.3582 18.2995 75.8582 18.4453C75.3634 18.5859 74.8113 18.6562 74.2019 18.6562C73.655 18.6562 73.116 18.5833 72.5847 18.4375C72.0587 18.2917 71.5795 18.0703 71.1472 17.7734C70.7149 17.4714 70.3712 17.0964 70.116 16.6484C69.8608 16.1953 69.7332 15.6667 69.7332 15.0625H71.6941C71.6941 15.4323 71.7566 15.7474 71.8816 16.0078C72.0118 16.2682 72.1915 16.4818 72.4207 16.6484C72.6498 16.8099 72.9154 16.9297 73.2175 17.0078C73.5248 17.0859 73.8529 17.125 74.2019 17.125C74.6602 17.125 75.0431 17.0599 75.3503 16.9297C75.6628 16.7995 75.8972 16.6172 76.0535 16.3828C76.2097 16.1484 76.2878 15.8776 76.2878 15.5703ZM83.6785 10.0469V11.4219H78.9128V10.0469H83.6785ZM80.2878 7.97656H82.1707V16.1641C82.1707 16.4245 82.2071 16.625 82.28 16.7656C82.3582 16.901 82.4649 16.9922 82.6003 17.0391C82.7358 17.0859 82.8946 17.1094 83.0769 17.1094C83.2071 17.1094 83.3321 17.1016 83.4519 17.0859C83.5717 17.0703 83.6681 17.0547 83.741 17.0391L83.7488 18.4766C83.5925 18.5234 83.4102 18.5651 83.2019 18.6016C82.9988 18.638 82.7644 18.6562 82.4988 18.6562C82.0665 18.6562 81.6837 18.5807 81.3503 18.4297C81.017 18.2734 80.7566 18.0208 80.5691 17.6719C80.3816 17.3229 80.2878 16.8594 80.2878 16.2812V7.97656ZM84.5847 14.3672V14.1875C84.5847 13.5781 84.6733 13.013 84.8503 12.4922C85.0274 11.9661 85.2826 11.5104 85.616 11.125C85.9545 10.7344 86.366 10.4323 86.8503 10.2188C87.3399 10 87.892 9.89062 88.5066 9.89062C89.1264 9.89062 89.6785 10 90.1628 10.2188C90.6524 10.4323 91.0665 10.7344 91.405 11.125C91.7436 11.5104 92.0014 11.9661 92.1785 12.4922C92.3556 13.013 92.4441 13.5781 92.4441 14.1875V14.3672C92.4441 14.9766 92.3556 15.5417 92.1785 16.0625C92.0014 16.5833 91.7436 17.0391 91.405 17.4297C91.0665 17.8151 90.655 18.1172 90.1707 18.3359C89.6863 18.5495 89.1368 18.6562 88.5222 18.6562C87.9024 18.6562 87.3477 18.5495 86.8582 18.3359C86.3738 18.1172 85.9623 17.8151 85.6238 17.4297C85.2852 17.0391 85.0274 16.5833 84.8503 16.0625C84.6733 15.5417 84.5847 14.9766 84.5847 14.3672ZM86.4675 14.1875V14.3672C86.4675 14.7474 86.5066 15.1068 86.5847 15.4453C86.6628 15.7839 86.7852 16.0807 86.9519 16.3359C87.1186 16.5911 87.3321 16.7917 87.5925 16.9375C87.8529 17.0833 88.1628 17.1562 88.5222 17.1562C88.8712 17.1562 89.1733 17.0833 89.4285 16.9375C89.6889 16.7917 89.9024 16.5911 90.0691 16.3359C90.2358 16.0807 90.3582 15.7839 90.4363 15.4453C90.5196 15.1068 90.5613 14.7474 90.5613 14.3672V14.1875C90.5613 13.8125 90.5196 13.4583 90.4363 13.125C90.3582 12.7865 90.2332 12.487 90.0613 12.2266C89.8946 11.9661 89.6811 11.763 89.4207 11.6172C89.1654 11.4661 88.8608 11.3906 88.5066 11.3906C88.1524 11.3906 87.8451 11.4661 87.5847 11.6172C87.3295 11.763 87.1186 11.9661 86.9519 12.2266C86.7852 12.487 86.6628 12.7865 86.5847 13.125C86.5066 13.4583 86.4675 13.8125 86.4675 14.1875ZM95.9128 11.6562V18.5H94.03V10.0469H95.8269L95.9128 11.6562ZM98.4988 9.99219L98.4832 11.7422C98.3686 11.7214 98.2436 11.7057 98.1082 11.6953C97.9779 11.6849 97.8477 11.6797 97.7175 11.6797C97.3946 11.6797 97.1108 11.7266 96.866 11.8203C96.6212 11.9089 96.4154 12.0391 96.2488 12.2109C96.0873 12.3776 95.9623 12.5807 95.8738 12.8203C95.7852 13.0599 95.7332 13.3281 95.7175 13.625L95.2878 13.6562C95.2878 13.125 95.3399 12.6328 95.4441 12.1797C95.5483 11.7266 95.7045 11.3281 95.9128 10.9844C96.1264 10.6406 96.392 10.3724 96.7097 10.1797C97.0326 9.98698 97.405 9.89062 97.8269 9.89062C97.9415 9.89062 98.0639 9.90104 98.1941 9.92188C98.3295 9.94271 98.4311 9.96615 98.4988 9.99219ZM101.694 10.0469V18.5H99.8035V10.0469H101.694ZM99.6785 7.82812C99.6785 7.54167 99.7722 7.30469 99.9597 7.11719C100.152 6.92448 100.418 6.82812 100.757 6.82812C101.09 6.82812 101.353 6.92448 101.546 7.11719C101.738 7.30469 101.835 7.54167 101.835 7.82812C101.835 8.10938 101.738 8.34375 101.546 8.53125C101.353 8.71875 101.09 8.8125 100.757 8.8125C100.418 8.8125 100.152 8.71875 99.9597 8.53125C99.7722 8.34375 99.6785 8.10938 99.6785 7.82812ZM107.483 18.6562C106.858 18.6562 106.293 18.5547 105.788 18.3516C105.288 18.1432 104.861 17.8542 104.507 17.4844C104.158 17.1146 103.889 16.6797 103.702 16.1797C103.514 15.6797 103.421 15.1406 103.421 14.5625V14.25C103.421 13.5885 103.517 12.9896 103.71 12.4531C103.902 11.9167 104.171 11.4583 104.514 11.0781C104.858 10.6927 105.264 10.3984 105.733 10.1953C106.202 9.99219 106.71 9.89062 107.257 9.89062C107.861 9.89062 108.389 9.99219 108.843 10.1953C109.296 10.3984 109.671 10.6849 109.968 11.0547C110.27 11.4193 110.494 11.8542 110.639 12.3594C110.79 12.8646 110.866 13.4219 110.866 14.0312V14.8359H104.335V13.4844H109.007V13.3359C108.996 12.9974 108.928 12.6797 108.803 12.3828C108.684 12.0859 108.499 11.8464 108.249 11.6641C107.999 11.4818 107.665 11.3906 107.249 11.3906C106.936 11.3906 106.658 11.4583 106.413 11.5938C106.173 11.724 105.973 11.9141 105.811 12.1641C105.65 12.4141 105.525 12.7161 105.436 13.0703C105.353 13.4193 105.311 13.8125 105.311 14.25V14.5625C105.311 14.9323 105.361 15.276 105.46 15.5938C105.564 15.9062 105.715 16.1797 105.913 16.4141C106.111 16.6484 106.35 16.8333 106.632 16.9688C106.913 17.099 107.233 17.1641 107.593 17.1641C108.046 17.1641 108.449 17.0729 108.803 16.8906C109.158 16.7083 109.465 16.4505 109.725 16.1172L110.718 17.0781C110.535 17.3438 110.298 17.599 110.007 17.8438C109.715 18.0833 109.358 18.2786 108.936 18.4297C108.52 18.5807 108.035 18.6562 107.483 18.6562ZM117.077 16.2109C117.077 16.0234 117.03 15.8542 116.936 15.7031C116.843 15.5469 116.663 15.4062 116.397 15.2812C116.137 15.1562 115.751 15.0417 115.241 14.9375C114.793 14.8385 114.382 14.7214 114.007 14.5859C113.637 14.4453 113.319 14.276 113.053 14.0781C112.788 13.8802 112.582 13.6458 112.436 13.375C112.29 13.1042 112.218 12.7917 112.218 12.4375C112.218 12.0938 112.293 11.7682 112.444 11.4609C112.595 11.1536 112.811 10.8828 113.093 10.6484C113.374 10.4141 113.715 10.2292 114.116 10.0938C114.522 9.95833 114.975 9.89062 115.475 9.89062C116.184 9.89062 116.79 10.0104 117.296 10.25C117.806 10.4844 118.197 10.8047 118.468 11.2109C118.738 11.612 118.874 12.0651 118.874 12.5703H116.991C116.991 12.3464 116.934 12.138 116.819 11.9453C116.71 11.7474 116.543 11.5885 116.319 11.4688C116.095 11.3438 115.814 11.2812 115.475 11.2812C115.152 11.2812 114.884 11.3333 114.671 11.4375C114.462 11.5365 114.306 11.6667 114.202 11.8281C114.103 11.9896 114.053 12.1667 114.053 12.3594C114.053 12.5 114.08 12.6276 114.132 12.7422C114.189 12.8516 114.283 12.9531 114.413 13.0469C114.543 13.1354 114.72 13.2188 114.944 13.2969C115.173 13.375 115.46 13.4505 115.803 13.5234C116.449 13.6589 117.004 13.8333 117.468 14.0469C117.936 14.2552 118.296 14.526 118.546 14.8594C118.796 15.1875 118.921 15.6042 118.921 16.1094C118.921 16.4844 118.84 16.8281 118.678 17.1406C118.522 17.4479 118.293 17.7161 117.991 17.9453C117.689 18.1693 117.327 18.3438 116.905 18.4688C116.488 18.5938 116.02 18.6562 115.499 18.6562C114.733 18.6562 114.085 18.5208 113.553 18.25C113.022 17.974 112.619 17.6224 112.343 17.1953C112.072 16.763 111.936 16.3151 111.936 15.8516H113.757C113.777 16.2005 113.874 16.4792 114.046 16.6875C114.223 16.8906 114.441 17.0391 114.702 17.1328C114.968 17.2214 115.241 17.2656 115.522 17.2656C115.861 17.2656 116.145 17.2214 116.374 17.1328C116.603 17.0391 116.777 16.9141 116.897 16.7578C117.017 16.5964 117.077 16.4141 117.077 16.2109Z" fill="#2374E1"/>
</svg>
