<svg width="264" height="41" viewBox="0 0 264 41" fill="none" xmlns="http://www.w3.org/2000/svg">
<rect x="55.6533" y="0.5" width="207.812" height="39.8" rx="15" fill="white" fill-opacity="0.05"/>
<path d="M93.5834 25.568C92.6874 25.568 91.9174 25.358 91.2734 24.938C90.6388 24.5087 90.1954 23.9207 89.9434 23.174L90.7834 22.684C90.9608 23.2907 91.2874 23.7667 91.7634 24.112C92.2394 24.448 92.8508 24.616 93.5974 24.616C94.3254 24.616 94.8901 24.4573 95.2914 24.14C95.7021 23.8133 95.9074 23.384 95.9074 22.852C95.9074 22.3387 95.7208 21.9513 95.3474 21.69C94.9741 21.4287 94.3581 21.158 93.4994 20.878C92.4821 20.542 91.8101 20.2713 91.4834 20.066C90.7368 19.618 90.3634 18.9693 90.3634 18.12C90.3634 17.2893 90.6528 16.636 91.2314 16.16C91.8101 15.6747 92.5241 15.432 93.3734 15.432C94.1388 15.432 94.8014 15.6327 95.3614 16.034C95.9214 16.426 96.3368 16.93 96.6074 17.546L95.7814 18.008C95.3334 16.9253 94.5308 16.384 93.3734 16.384C92.7668 16.384 92.2768 16.5333 91.9034 16.832C91.5301 17.1307 91.3434 17.546 91.3434 18.078C91.3434 18.5633 91.5114 18.9273 91.8474 19.17C92.1834 19.4127 92.7388 19.66 93.5134 19.912C93.8681 20.0333 94.1201 20.122 94.2694 20.178C94.4281 20.2247 94.6521 20.3087 94.9414 20.43C95.2401 20.542 95.4594 20.6447 95.5994 20.738C95.7394 20.822 95.9074 20.9433 96.1034 21.102C96.3088 21.2513 96.4534 21.4053 96.5374 21.564C96.6308 21.7133 96.7101 21.9 96.7754 22.124C96.8501 22.3387 96.8874 22.572 96.8874 22.824C96.8874 23.6547 96.5841 24.322 95.9774 24.826C95.3708 25.3207 94.5728 25.568 93.5834 25.568ZM102.361 18.232C103.397 18.232 104.232 18.6007 104.867 19.338C105.511 20.066 105.833 20.9293 105.833 21.928C105.833 22.0307 105.823 22.1753 105.805 22.362H99.6585C99.7519 23.0713 100.051 23.636 100.555 24.056C101.068 24.4667 101.698 24.672 102.445 24.672C102.977 24.672 103.434 24.5647 103.817 24.35C104.209 24.126 104.503 23.8367 104.699 23.482L105.511 23.958C105.203 24.4527 104.783 24.8447 104.251 25.134C103.719 25.4233 103.112 25.568 102.431 25.568C101.329 25.568 100.433 25.2227 99.7425 24.532C99.0519 23.8413 98.7065 22.964 98.7065 21.9C98.7065 20.8547 99.0472 19.982 99.7285 19.282C100.41 18.582 101.287 18.232 102.361 18.232ZM102.361 19.128C101.633 19.128 101.021 19.3473 100.527 19.786C100.041 20.2153 99.7519 20.7753 99.6585 21.466H104.881C104.787 20.7287 104.503 20.1547 104.027 19.744C103.551 19.3333 102.995 19.128 102.361 19.128ZM113.882 18.4H114.806V25.4H113.882V24.028C113.238 25.0547 112.296 25.568 111.054 25.568C110.056 25.568 109.202 25.2133 108.492 24.504C107.792 23.7947 107.442 22.9267 107.442 21.9C107.442 20.8733 107.792 20.0053 108.492 19.296C109.202 18.5867 110.056 18.232 111.054 18.232C112.296 18.232 113.238 18.7453 113.882 19.772V18.4ZM109.164 23.874C109.696 24.406 110.35 24.672 111.124 24.672C111.899 24.672 112.552 24.406 113.084 23.874C113.616 23.3327 113.882 22.6747 113.882 21.9C113.882 21.1253 113.616 20.472 113.084 19.94C112.552 19.3987 111.899 19.128 111.124 19.128C110.35 19.128 109.696 19.3987 109.164 19.94C108.632 20.472 108.366 21.1253 108.366 21.9C108.366 22.6747 108.632 23.3327 109.164 23.874ZM118.247 19.562C118.676 18.7127 119.413 18.288 120.459 18.288V19.184C119.824 19.184 119.297 19.3707 118.877 19.744C118.457 20.1173 118.247 20.7053 118.247 21.508V25.4H117.323V18.4H118.247V19.562ZM125.123 25.568C124.069 25.568 123.191 25.218 122.491 24.518C121.791 23.8087 121.441 22.936 121.441 21.9C121.441 20.864 121.791 19.996 122.491 19.296C123.191 18.5867 124.069 18.232 125.123 18.232C125.814 18.232 126.435 18.4 126.985 18.736C127.536 19.0627 127.937 19.506 128.189 20.066L127.433 20.5C127.247 20.08 126.943 19.7487 126.523 19.506C126.113 19.254 125.646 19.128 125.123 19.128C124.349 19.128 123.695 19.3987 123.163 19.94C122.631 20.472 122.365 21.1253 122.365 21.9C122.365 22.6747 122.631 23.3327 123.163 23.874C123.695 24.406 124.349 24.672 125.123 24.672C125.646 24.672 126.113 24.5507 126.523 24.308C126.934 24.056 127.256 23.72 127.489 23.3L128.259 23.748C127.97 24.308 127.545 24.7513 126.985 25.078C126.425 25.4047 125.805 25.568 125.123 25.568ZM133.422 18.232C134.271 18.232 134.939 18.4933 135.424 19.016C135.919 19.5293 136.166 20.2247 136.166 21.102V25.4H135.242V21.102C135.242 20.4767 135.074 19.9913 134.738 19.646C134.411 19.3007 133.945 19.128 133.338 19.128C132.666 19.128 132.12 19.3427 131.7 19.772C131.28 20.192 131.07 20.8453 131.07 21.732V25.4H130.146V15.6H131.07V19.492C131.593 18.652 132.377 18.232 133.422 18.232ZM149.012 15.6H149.992V25.4H149.012V20.822H143.692V25.4H142.712V15.6H143.692V19.898H149.012V15.6ZM155.882 18.232C156.918 18.232 157.753 18.6007 158.388 19.338C159.032 20.066 159.354 20.9293 159.354 21.928C159.354 22.0307 159.345 22.1753 159.326 22.362H153.18C153.273 23.0713 153.572 23.636 154.076 24.056C154.589 24.4667 155.219 24.672 155.966 24.672C156.498 24.672 156.955 24.5647 157.338 24.35C157.73 24.126 158.024 23.8367 158.22 23.482L159.032 23.958C158.724 24.4527 158.304 24.8447 157.772 25.134C157.24 25.4233 156.633 25.568 155.952 25.568C154.851 25.568 153.955 25.2227 153.264 24.532C152.573 23.8413 152.228 22.964 152.228 21.9C152.228 20.8547 152.569 19.982 153.25 19.282C153.931 18.582 154.809 18.232 155.882 18.232ZM155.882 19.128C155.154 19.128 154.543 19.3473 154.048 19.786C153.563 20.2153 153.273 20.7753 153.18 21.466H158.402C158.309 20.7287 158.024 20.1547 157.548 19.744C157.072 19.3333 156.517 19.128 155.882 19.128ZM162.308 19.562C162.737 18.7127 163.475 18.288 164.52 18.288V19.184C163.885 19.184 163.358 19.3707 162.938 19.744C162.518 20.1173 162.308 20.7053 162.308 21.508V25.4H161.384V18.4H162.308V19.562ZM169.156 18.232C170.192 18.232 171.028 18.6007 171.662 19.338C172.306 20.066 172.628 20.9293 172.628 21.928C172.628 22.0307 172.619 22.1753 172.6 22.362H166.454C166.548 23.0713 166.846 23.636 167.35 24.056C167.864 24.4667 168.494 24.672 169.24 24.672C169.772 24.672 170.23 24.5647 170.612 24.35C171.004 24.126 171.298 23.8367 171.494 23.482L172.306 23.958C171.998 24.4527 171.578 24.8447 171.046 25.134C170.514 25.4233 169.908 25.568 169.226 25.568C168.125 25.568 167.229 25.2227 166.538 24.532C165.848 23.8413 165.502 22.964 165.502 21.9C165.502 20.8547 165.843 19.982 166.524 19.282C167.206 18.582 168.083 18.232 169.156 18.232ZM169.156 19.128C168.428 19.128 167.817 19.3473 167.322 19.786C166.837 20.2153 166.548 20.7753 166.454 21.466H171.676C171.583 20.7287 171.298 20.1547 170.822 19.744C170.346 19.3333 169.791 19.128 169.156 19.128Z" fill="white" fill-opacity="0.35"/>
<path fill-rule="evenodd" clip-rule="evenodd" d="M72.2428 15.1031C73.2287 14.1172 74.5659 13.5634 75.9602 13.5634C77.3545 13.5634 78.6916 14.1172 79.6775 15.1031C80.6635 16.089 81.2173 17.4262 81.2173 18.8205C81.2173 20.1961 80.6782 21.5161 79.717 22.4981C79.7638 22.5427 79.8101 22.5913 79.8553 22.6437L82.2299 25.3965C82.6392 25.8711 82.8033 26.4753 82.5965 26.7462C82.3896 27.0171 81.8901 26.852 81.4808 26.3775L79.1062 23.6247C78.9965 23.4974 78.9043 23.3608 78.8322 23.2238C77.9844 23.7768 76.9878 24.0777 75.9602 24.0777C74.5659 24.0777 73.2287 23.5238 72.2428 22.5379C71.2569 21.552 70.703 20.2148 70.703 18.8205C70.703 17.4262 71.2569 16.089 72.2428 15.1031ZM77.6574 14.8078C77.1193 14.5895 76.5426 14.4771 75.9602 14.4771C74.7839 14.4771 73.6559 14.9348 72.8241 15.7493C71.9924 16.5638 71.5251 17.6686 71.5251 18.8205C71.5251 19.9724 71.9924 21.0772 72.8241 21.8917C73.6559 22.7062 74.7839 23.1638 75.9602 23.1638C76.5426 23.1638 77.1193 23.0515 77.6574 22.8332C78.1955 22.6149 78.6844 22.295 79.0963 21.8917C79.5081 21.4884 79.8348 21.0096 80.0577 20.4826C80.2805 19.9557 80.3953 19.3909 80.3953 18.8205C80.3953 18.2501 80.2805 17.6853 80.0577 17.1584C79.8348 16.6314 79.5081 16.1526 79.0963 15.7493C78.6844 15.346 78.1955 15.026 77.6574 14.8078Z" fill="white" fill-opacity="0.35"/>
<path d="M17.2343 40.3C7.7343 38.6 0.534302 30.4 0.534302 20.5C0.534302 9.5 9.5343 0.5 20.5343 0.5C31.5343 0.5 40.5343 9.5 40.5343 20.5C40.5343 30.4 33.3343 38.6 23.8343 40.3L22.7343 39.4H18.3343L17.2343 40.3Z" fill="url(#paint0_linear_101_558)"/>
<path d="M28.3343 26.1L29.2344 20.5H23.9344V16.6C23.9344 15 24.5343 13.8 26.9344 13.8H29.5344V8.7C28.1344 8.5 26.5344 8.3 25.1344 8.3C20.5344 8.3 17.3343 11.1 17.3343 16.1V20.5H12.3344V26.1H17.3343V40.2C18.4343 40.4 19.5344 40.5 20.6344 40.5C21.7344 40.5 22.8343 40.4 23.9344 40.2V26.1H28.3343Z" fill="white"/>
<defs>
<linearGradient id="paint0_linear_101_558" x1="20.5353" y1="39.1089" x2="20.5353" y2="0.492632" gradientUnits="userSpaceOnUse">
<stop stop-color="#0062E0"/>
<stop offset="1" stop-color="#19AFFF"/>
</linearGradient>
</defs>
</svg>
